# xmcd CD database file
#
# Track frame offsets:
#	150
#	28321
#	41109
#	66499
#	89670
#	112041
#	129869
#	159270
#	172732
#
# Disc length: 2509 seconds
#
# Revision: 0
# Processed by: cddbd v1.5.2PL0 Copyright (c) Steve Scherf et al.
# Submitted via: CDex 1.70beta2
#
DISCID=7709cb09
DTITLE=Fernando Holz - My Nude Soul
DYEAR=1900
DGENRE=Jazz
TTITLE0=Sergredos De Laetitia
TTITLE1=Noites Vazias
TTITLE2=Freud Explica
TTITLE3=A Verdade
TTITLE4=Aprendiz
TTITLE5=Diaspora Brasilerira
TTITLE6=Estacao
TTITLE7=Outro Outono
TTITLE8=Erica
EXTD=
EXTT0=
EXTT1=
EXTT2=
EXTT3=
EXTT4=
EXTT5=
EXTT6=
EXTT7=
EXTT8=
PLAYORDER=
